<svg width="57" height="85" viewBox="0 0 57 85" fill="none" shape-rendering="crispEdges" xmlns="http://www.w3.org/2000/svg">
<path d="M22.8529 83.2992L15.2363 81.0886L7.69458 76.7597L1.27597 69.1402L0 60.9236L1.7926 24.6065L2.93265 13.9072L7.78958 8.10474L13.0237 4.33675L16.8949 0L24.5695 1.14789L32.041 1.58767L36.9202 4.30129L41.5023 10.332L45.8303 17.7503L46.5269 28.6817L31.9602 29.9757L31.2865 21.183L27.1783 15.9134L21.1413 13.9757L16.5186 17.5796L15.5163 22.9769L15.8427 64.1274L17.8249 66.6279L19.3162 68.7511L25.6925 70.2129L27.459 67.4402L33.0672 62.709L31.751 53.4499L46.826 55.8254L45.9214 66.9832L41.2756 73.8594L36.3795 77.917L31.4366 82.9144L23.4592 84.4598L22.8529 83.2992Z" fill="black"/>
<path d="M22.8529 83.2992L15.2363 81.0886L7.69458 76.7597L1.27597 69.1402L0 60.9236L1.7926 24.6065L2.93265 13.9072L7.78958 8.10474L13.0237 4.33675L16.8949 0L24.5695 1.14789L32.041 1.58767L36.9202 4.30129L41.5023 10.332L45.8303 17.7503L46.5269 28.6817L31.9602 29.9757L31.2865 21.183L27.1783 15.9134L21.1413 13.9757L16.5186 17.5796L15.5163 22.9769L15.8427 64.1274L17.8249 66.6279L19.3162 68.7511L25.6925 70.2129L27.459 67.4402L33.0672 62.709L31.751 53.4499L46.826 55.8254L45.9214 66.9832L41.2756 73.8594L36.3795 77.917L31.4366 82.9144L23.4592 84.4598L22.8529 83.2992Z" fill="black"/>
<path d="M22.8529 83.2992L15.2363 81.0886L7.69458 76.7597L1.27597 69.1402L0 60.9236L1.7926 24.6065L2.93265 13.9072L7.78958 8.10474L13.0237 4.33675L16.8949 0L24.5695 1.14789L32.041 1.58767L36.9202 4.30129L41.5023 10.332L45.8303 17.7503L46.5269 28.6817L31.9602 29.9757L31.2865 21.183L27.1783 15.9134L21.1413 13.9757L16.5186 17.5796L15.5163 22.9769L15.8427 64.1274L17.8249 66.6279L19.3162 68.7511L25.6925 70.2129L27.459 67.4402L33.0672 62.709L31.751 53.4499L46.826 55.8254L45.9214 66.9832L41.2756 73.8594L36.3795 77.917L31.4366 82.9144L23.4592 84.4598L22.8529 83.2992Z" fill="black"/>
<path d="M22.8529 83.2992L15.2363 81.0886L7.69458 76.7597L1.27597 69.1402L0 60.9236L1.7926 24.6065L2.93265 13.9072L7.78958 8.10474L13.0237 4.33675L16.8949 0L24.5695 1.14789L32.041 1.58767L36.9202 4.30129L41.5023 10.332L45.8303 17.7503L46.5269 28.6817L31.9602 29.9757L31.2865 21.183L27.1783 15.9134L21.1413 13.9757L16.5186 17.5796L15.5163 22.9769L15.8427 64.1274L17.8249 66.6279L19.3162 68.7511L25.6925 70.2129L27.459 67.4402L33.0672 62.709L31.751 53.4499L46.826 55.8254L45.9214 66.9832L41.2756 73.8594L36.3795 77.917L31.4366 82.9144L23.4592 84.4598L22.8529 83.2992Z" fill="black"/>
<path d="M22.8529 83.2992L15.2363 81.0886L7.69458 76.7597L1.27597 69.1402L0 60.9236L1.7926 24.6065L2.93265 13.9072L7.78958 8.10474L13.0237 4.33675L16.8949 0L24.5695 1.14789L32.041 1.58767L36.9202 4.30129L41.5023 10.332L45.8303 17.7503L46.5269 28.6817L31.9602 29.9757L31.2865 21.183L27.1783 15.9134L21.1413 13.9757L16.5186 17.5796L15.5163 22.9769L15.8427 64.1274L17.8249 66.6279L19.3162 68.7511L25.6925 70.2129L27.459 67.4402L33.0672 62.709L31.751 53.4499L46.826 55.8254L45.9214 66.9832L41.2756 73.8594L36.3795 77.917L31.4366 82.9144L23.4592 84.4598L22.8529 83.2992Z" fill="black"/>
<path d="M22.8529 83.2992L15.2363 81.0886L7.69458 76.7597L1.27597 69.1402L0 60.9236L1.7926 24.6065L2.93265 13.9072L7.78958 8.10474L13.0237 4.33675L16.8949 0L24.5695 1.14789L32.041 1.58767L36.9202 4.30129L41.5023 10.332L45.8303 17.7503L46.5269 28.6817L31.9602 29.9757L31.2865 21.183L27.1783 15.9134L21.1413 13.9757L16.5186 17.5796L15.5163 22.9769L15.8427 64.1274L17.8249 66.6279L19.3162 68.7511L25.6925 70.2129L27.459 67.4402L33.0672 62.709L31.751 53.4499L46.826 55.8254L45.9214 66.9832L41.2756 73.8594L36.3795 77.917L31.4366 82.9144L23.4592 84.4598L22.8529 83.2992Z" fill="black"/>
<path d="M22.8529 83.2992L15.2363 81.0886L7.69458 76.7597L1.27597 69.1402L0 60.9236L1.7926 24.6065L2.93265 13.9072L7.78958 8.10474L13.0237 4.33675L16.8949 0L24.5695 1.14789L32.041 1.58767L36.9202 4.30129L41.5023 10.332L45.8303 17.7503L46.5269 28.6817L31.9602 29.9757L31.2865 21.183L27.1783 15.9134L21.1413 13.9757L16.5186 17.5796L15.5163 22.9769L15.8427 64.1274L17.8249 66.6279L19.3162 68.7511L25.6925 70.2129L27.459 67.4402L33.0672 62.709L31.751 53.4499L46.826 55.8254L45.9214 66.9832L41.2756 73.8594L36.3795 77.917L31.4366 82.9144L23.4592 84.4598L22.8529 83.2992Z" fill="black"/>
<path d="M22.8529 83.2992L15.2363 81.0886L7.69458 76.7597L1.27597 69.1402L0 60.9236L1.7926 24.6065L2.93265 13.9072L7.78958 8.10474L13.0237 4.33675L16.8949 0L24.5695 1.14789L32.041 1.58767L36.9202 4.30129L41.5023 10.332L45.8303 17.7503L46.5269 28.6817L31.9602 29.9757L31.2865 21.183L27.1783 15.9134L21.1413 13.9757L16.5186 17.5796L15.5163 22.9769L15.8427 64.1274L17.8249 66.6279L19.3162 68.7511L25.6925 70.2129L27.459 67.4402L33.0672 62.709L31.751 53.4499L46.826 55.8254L45.9214 66.9832L41.2756 73.8594L36.3795 77.917L31.4366 82.9144L23.4592 84.4598L22.8529 83.2992Z" fill="black"/>
<path d="M22.8529 83.2992L15.2363 81.0886L7.69458 76.7597L1.27597 69.1402L0 60.9236L1.7926 24.6065L2.93265 13.9072L7.78958 8.10474L13.0237 4.33675L16.8949 0L24.5695 1.14789L32.041 1.58767L36.9202 4.30129L41.5023 10.332L45.8303 17.7503L46.5269 28.6817L31.9602 29.9757L31.2865 21.183L27.1783 15.9134L21.1413 13.9757L16.5186 17.5796L15.5163 22.9769L15.8427 64.1274L17.8249 66.6279L19.3162 68.7511L25.6925 70.2129L27.459 67.4402L33.0672 62.709L31.751 53.4499L46.826 55.8254L45.9214 66.9832L41.2756 73.8594L36.3795 77.917L31.4366 82.9144L23.4592 84.4598L22.8529 83.2992Z" fill="black"/>
<path d="M22.8529 83.2992L15.2363 81.0886L7.69458 76.7597L1.27597 69.1402L0 60.9236L1.7926 24.6065L2.93265 13.9072L7.78958 8.10474L13.0237 4.33675L16.8949 0L24.5695 1.14789L32.041 1.58767L36.9202 4.30129L41.5023 10.332L45.8303 17.7503L46.5269 28.6817L31.9602 29.9757L31.2865 21.183L27.1783 15.9134L21.1413 13.9757L16.5186 17.5796L15.5163 22.9769L15.8427 64.1274L17.8249 66.6279L19.3162 68.7511L25.6925 70.2129L27.459 67.4402L33.0672 62.709L31.751 53.4499L46.826 55.8254L45.9214 66.9832L41.2756 73.8594L36.3795 77.917L31.4366 82.9144L23.4592 84.4598L22.8529 83.2992Z" fill="black"/>
<path d="M22.8529 83.2992L15.2363 81.0886L7.69458 76.7597L1.27597 69.1402L0 60.9236L1.7926 24.6065L2.93265 13.9072L7.78958 8.10474L13.0237 4.33675L16.8949 0L24.5695 1.14789L32.041 1.58767L36.9202 4.30129L41.5023 10.332L45.8303 17.7503L46.5269 28.6817L31.9602 29.9757L31.2865 21.183L27.1783 15.9134L21.1413 13.9757L16.5186 17.5796L15.5163 22.9769L15.8427 64.1274L17.8249 66.6279L19.3162 68.7511L25.6925 70.2129L27.459 67.4402L33.0672 62.709L31.751 53.4499L46.826 55.8254L45.9214 66.9832L41.2756 73.8594L36.3795 77.917L31.4366 82.9144L23.4592 84.4598L22.8529 83.2992Z" fill="black"/>
<rect x="29.561" y="51.6521" width="27.2629" height="9.8488" transform="rotate(10.9894 29.561 51.6521)" fill="black"/>
<circle cx="27.6805" cy="40.7223" r="5.14678" fill="black"/>
<circle cx="46.7972" cy="42.1929" r="5.14678" fill="black"/>
</svg>
