<svg width="224" height="85" viewBox="0 0 224 85" fill="none" xmlns="http://www.w3.org/2000/svg">
<path shape-rendering="crispEdges" d="M22.8529 83.2992L15.2363 81.0886L7.69458 76.7597L1.27597 69.1402L0 60.9236L1.7926 24.6065L2.93265 13.9072L7.78958 8.10474L13.0237 4.33675L16.8949 0L24.5695 1.14789L32.041 1.58767L36.9202 4.30129L41.5023 10.332L45.8303 17.7503L46.5269 28.6817L31.9602 29.9757L31.2865 21.183L27.1783 15.9134L21.1413 13.9757L16.5186 17.5796L15.5163 22.9769L15.8427 64.1274L17.8249 66.6279L19.3162 68.7511L25.6925 70.2129L27.459 67.4402L33.0672 62.709L31.751 53.4499L46.826 55.8254L45.9214 66.9832L41.2756 73.8594L36.3795 77.917L31.4366 82.9144L23.4592 84.4598L22.8529 83.2992Z" fill="black"/>
<path shape-rendering="crispEdges" d="M22.8529 83.2992L15.2363 81.0886L7.69458 76.7597L1.27597 69.1402L0 60.9236L1.7926 24.6065L2.93265 13.9072L7.78958 8.10474L13.0237 4.33675L16.8949 0L24.5695 1.14789L32.041 1.58767L36.9202 4.30129L41.5023 10.332L45.8303 17.7503L46.5269 28.6817L31.9602 29.9757L31.2865 21.183L27.1783 15.9134L21.1413 13.9757L16.5186 17.5796L15.5163 22.9769L15.8427 64.1274L17.8249 66.6279L19.3162 68.7511L25.6925 70.2129L27.459 67.4402L33.0672 62.709L31.751 53.4499L46.826 55.8254L45.9214 66.9832L41.2756 73.8594L36.3795 77.917L31.4366 82.9144L23.4592 84.4598L22.8529 83.2992Z" fill="black"/>
<path shape-rendering="crispEdges" d="M22.8529 83.2992L15.2363 81.0886L7.69458 76.7597L1.27597 69.1402L0 60.9236L1.7926 24.6065L2.93265 13.9072L7.78958 8.10474L13.0237 4.33675L16.8949 0L24.5695 1.14789L32.041 1.58767L36.9202 4.30129L41.5023 10.332L45.8303 17.7503L46.5269 28.6817L31.9602 29.9757L31.2865 21.183L27.1783 15.9134L21.1413 13.9757L16.5186 17.5796L15.5163 22.9769L15.8427 64.1274L17.8249 66.6279L19.3162 68.7511L25.6925 70.2129L27.459 67.4402L33.0672 62.709L31.751 53.4499L46.826 55.8254L45.9214 66.9832L41.2756 73.8594L36.3795 77.917L31.4366 82.9144L23.4592 84.4598L22.8529 83.2992Z" fill="black"/>
<path shape-rendering="crispEdges" d="M22.8529 83.2992L15.2363 81.0886L7.69458 76.7597L1.27597 69.1402L0 60.9236L1.7926 24.6065L2.93265 13.9072L7.78958 8.10474L13.0237 4.33675L16.8949 0L24.5695 1.14789L32.041 1.58767L36.9202 4.30129L41.5023 10.332L45.8303 17.7503L46.5269 28.6817L31.9602 29.9757L31.2865 21.183L27.1783 15.9134L21.1413 13.9757L16.5186 17.5796L15.5163 22.9769L15.8427 64.1274L17.8249 66.6279L19.3162 68.7511L25.6925 70.2129L27.459 67.4402L33.0672 62.709L31.751 53.4499L46.826 55.8254L45.9214 66.9832L41.2756 73.8594L36.3795 77.917L31.4366 82.9144L23.4592 84.4598L22.8529 83.2992Z" fill="black"/>
<path shape-rendering="crispEdges" d="M22.8529 83.2992L15.2363 81.0886L7.69458 76.7597L1.27597 69.1402L0 60.9236L1.7926 24.6065L2.93265 13.9072L7.78958 8.10474L13.0237 4.33675L16.8949 0L24.5695 1.14789L32.041 1.58767L36.9202 4.30129L41.5023 10.332L45.8303 17.7503L46.5269 28.6817L31.9602 29.9757L31.2865 21.183L27.1783 15.9134L21.1413 13.9757L16.5186 17.5796L15.5163 22.9769L15.8427 64.1274L17.8249 66.6279L19.3162 68.7511L25.6925 70.2129L27.459 67.4402L33.0672 62.709L31.751 53.4499L46.826 55.8254L45.9214 66.9832L41.2756 73.8594L36.3795 77.917L31.4366 82.9144L23.4592 84.4598L22.8529 83.2992Z" fill="black"/>
<path shape-rendering="crispEdges" d="M22.8529 83.2992L15.2363 81.0886L7.69458 76.7597L1.27597 69.1402L0 60.9236L1.7926 24.6065L2.93265 13.9072L7.78958 8.10474L13.0237 4.33675L16.8949 0L24.5695 1.14789L32.041 1.58767L36.9202 4.30129L41.5023 10.332L45.8303 17.7503L46.5269 28.6817L31.9602 29.9757L31.2865 21.183L27.1783 15.9134L21.1413 13.9757L16.5186 17.5796L15.5163 22.9769L15.8427 64.1274L17.8249 66.6279L19.3162 68.7511L25.6925 70.2129L27.459 67.4402L33.0672 62.709L31.751 53.4499L46.826 55.8254L45.9214 66.9832L41.2756 73.8594L36.3795 77.917L31.4366 82.9144L23.4592 84.4598L22.8529 83.2992Z" fill="black"/>
<path shape-rendering="crispEdges" d="M22.8529 83.2992L15.2363 81.0886L7.69458 76.7597L1.27597 69.1402L0 60.9236L1.7926 24.6065L2.93265 13.9072L7.78958 8.10474L13.0237 4.33675L16.8949 0L24.5695 1.14789L32.041 1.58767L36.9202 4.30129L41.5023 10.332L45.8303 17.7503L46.5269 28.6817L31.9602 29.9757L31.2865 21.183L27.1783 15.9134L21.1413 13.9757L16.5186 17.5796L15.5163 22.9769L15.8427 64.1274L17.8249 66.6279L19.3162 68.7511L25.6925 70.2129L27.459 67.4402L33.0672 62.709L31.751 53.4499L46.826 55.8254L45.9214 66.9832L41.2756 73.8594L36.3795 77.917L31.4366 82.9144L23.4592 84.4598L22.8529 83.2992Z" fill="black"/>
<path shape-rendering="crispEdges" d="M22.8529 83.2992L15.2363 81.0886L7.69458 76.7597L1.27597 69.1402L0 60.9236L1.7926 24.6065L2.93265 13.9072L7.78958 8.10474L13.0237 4.33675L16.8949 0L24.5695 1.14789L32.041 1.58767L36.9202 4.30129L41.5023 10.332L45.8303 17.7503L46.5269 28.6817L31.9602 29.9757L31.2865 21.183L27.1783 15.9134L21.1413 13.9757L16.5186 17.5796L15.5163 22.9769L15.8427 64.1274L17.8249 66.6279L19.3162 68.7511L25.6925 70.2129L27.459 67.4402L33.0672 62.709L31.751 53.4499L46.826 55.8254L45.9214 66.9832L41.2756 73.8594L36.3795 77.917L31.4366 82.9144L23.4592 84.4598L22.8529 83.2992Z" fill="black"/>
<path shape-rendering="crispEdges" d="M22.8529 83.2992L15.2363 81.0886L7.69458 76.7597L1.27597 69.1402L0 60.9236L1.7926 24.6065L2.93265 13.9072L7.78958 8.10474L13.0237 4.33675L16.8949 0L24.5695 1.14789L32.041 1.58767L36.9202 4.30129L41.5023 10.332L45.8303 17.7503L46.5269 28.6817L31.9602 29.9757L31.2865 21.183L27.1783 15.9134L21.1413 13.9757L16.5186 17.5796L15.5163 22.9769L15.8427 64.1274L17.8249 66.6279L19.3162 68.7511L25.6925 70.2129L27.459 67.4402L33.0672 62.709L31.751 53.4499L46.826 55.8254L45.9214 66.9832L41.2756 73.8594L36.3795 77.917L31.4366 82.9144L23.4592 84.4598L22.8529 83.2992Z" fill="black"/>
<path shape-rendering="crispEdges" d="M22.8529 83.2992L15.2363 81.0886L7.69458 76.7597L1.27597 69.1402L0 60.9236L1.7926 24.6065L2.93265 13.9072L7.78958 8.10474L13.0237 4.33675L16.8949 0L24.5695 1.14789L32.041 1.58767L36.9202 4.30129L41.5023 10.332L45.8303 17.7503L46.5269 28.6817L31.9602 29.9757L31.2865 21.183L27.1783 15.9134L21.1413 13.9757L16.5186 17.5796L15.5163 22.9769L15.8427 64.1274L17.8249 66.6279L19.3162 68.7511L25.6925 70.2129L27.459 67.4402L33.0672 62.709L31.751 53.4499L46.826 55.8254L45.9214 66.9832L41.2756 73.8594L36.3795 77.917L31.4366 82.9144L23.4592 84.4598L22.8529 83.2992Z" fill="black"/>
<path shape-rendering="crispEdges" d="M22.8529 83.2992L15.2363 81.0886L7.69458 76.7597L1.27597 69.1402L0 60.9236L1.7926 24.6065L2.93265 13.9072L7.78958 8.10474L13.0237 4.33675L16.8949 0L24.5695 1.14789L32.041 1.58767L36.9202 4.30129L41.5023 10.332L45.8303 17.7503L46.5269 28.6817L31.9602 29.9757L31.2865 21.183L27.1783 15.9134L21.1413 13.9757L16.5186 17.5796L15.5163 22.9769L15.8427 64.1274L17.8249 66.6279L19.3162 68.7511L25.6925 70.2129L27.459 67.4402L33.0672 62.709L31.751 53.4499L46.826 55.8254L45.9214 66.9832L41.2756 73.8594L36.3795 77.917L31.4366 82.9144L23.4592 84.4598L22.8529 83.2992Z" fill="black"/>
<rect shape-rendering="crispEdges" x="29.561" y="51.6521" width="27.2629" height="9.8488" transform="rotate(10.9894 29.561 51.6521)" fill="black"/>
<circle shape-rendering="crispEdges" cx="27.6805" cy="40.7223" r="5.14678" fill="black"/>
<circle shape-rendering="crispEdges" cx="46.7972" cy="42.1929" r="5.14678" fill="black"/>
<path d="M72.0057 82.4603L64 83.5787L66.9567 38.1309L71.8751 37.9131L72.9063 83.6128L72.0057 82.4603ZM98.5161 82.5828L78.1089 80.9066L79.0235 35.6555L88.5194 35.3516L88.507 73.5726L97.9843 73.1462L98.0244 82.2016L98.5161 82.5828ZM111.218 81.2605L103.127 83.3229L106.515 35.7636L113.927 37.7627L118.33 45.4257L126.266 36.3001L131.924 36.4379L135.399 81.9248L124.742 81.5754L124.301 48.3693L120.828 59.9198L110.819 49.708L113.402 80.3214L111.218 81.2605ZM151.852 83.8224L141.465 78.4525L140.205 67.8372L138.224 44.8628L145.19 37.6931L153.397 35L158.089 39.9192L165.654 47.012L165.828 70.271L162.424 79.1191L152.375 82.3066L151.852 83.8224ZM149.929 76.4994L156.425 73.9546L157.986 69.9879L154.688 45.6562L151.023 43.8756L147.088 47.036L146.517 48.2821L146.526 70.8245L153.208 76.4319L149.929 76.4994ZM178.6 82.7518L169.82 80.7774L167.565 36.6768L187.488 35.9524L193.616 41.7186L195.858 47.6734L193.864 52.2944L190.6 59.7399L193.46 68.5614L195.352 83.6183L186.431 80.6271L186.699 64.5234L184.979 63.1017L177.848 62.9815L176.175 82.6697L178.6 82.7518ZM181.977 43.0895L177.88 45.1494L178.232 56.591L184.481 54.7494L186.229 53.6327L185.58 48.2563L183.848 45.9905L181.977 43.0895ZM223.394 83.173L202.327 83.1934L201.504 35.0097L222.401 38.1644L221.765 46.7476L207.215 45.8517L207.805 56.4611L221.982 54.619L222.875 61.7091L207.211 62.9501L209.892 74.515L219.952 72.5914L223.345 82.8339L223.394 83.173Z" fill="black" shape-rendering="crispEdges" />
<path d="M72.0057 82.4603L64 83.5787L66.9567 38.1309L71.8751 37.9131L72.9063 83.6128L72.0057 82.4603ZM98.5161 82.5828L78.1089 80.9066L79.0235 35.6555L88.5194 35.3516L88.507 73.5726L97.9843 73.1462L98.0244 82.2016L98.5161 82.5828ZM111.218 81.2605L103.127 83.3229L106.515 35.7636L113.927 37.7627L118.33 45.4257L126.266 36.3001L131.924 36.4379L135.399 81.9248L124.742 81.5754L124.301 48.3693L120.828 59.9198L110.819 49.708L113.402 80.3214L111.218 81.2605ZM151.852 83.8224L141.465 78.4525L140.205 67.8372L138.224 44.8628L145.19 37.6931L153.397 35L158.089 39.9192L165.654 47.012L165.828 70.271L162.424 79.1191L152.375 82.3066L151.852 83.8224ZM149.929 76.4994L156.425 73.9546L157.986 69.9879L154.688 45.6562L151.023 43.8756L147.088 47.036L146.517 48.2821L146.526 70.8245L153.208 76.4319L149.929 76.4994ZM178.6 82.7518L169.82 80.7774L167.565 36.6768L187.488 35.9524L193.616 41.7186L195.858 47.6734L193.864 52.2944L190.6 59.7399L193.46 68.5614L195.352 83.6183L186.431 80.6271L186.699 64.5234L184.979 63.1017L177.848 62.9815L176.175 82.6697L178.6 82.7518ZM181.977 43.0895L177.88 45.1494L178.232 56.591L184.481 54.7494L186.229 53.6327L185.58 48.2563L183.848 45.9905L181.977 43.0895ZM223.394 83.173L202.327 83.1934L201.504 35.0097L222.401 38.1644L221.765 46.7476L207.215 45.8517L207.805 56.4611L221.982 54.619L222.875 61.7091L207.211 62.9501L209.892 74.515L219.952 72.5914L223.345 82.8339L223.394 83.173Z" fill="black" shape-rendering="crispEdges" />
<path d="M72.0057 82.4603L64 83.5787L66.9567 38.1309L71.8751 37.9131L72.9063 83.6128L72.0057 82.4603ZM98.5161 82.5828L78.1089 80.9066L79.0235 35.6555L88.5194 35.3516L88.507 73.5726L97.9843 73.1462L98.0244 82.2016L98.5161 82.5828ZM111.218 81.2605L103.127 83.3229L106.515 35.7636L113.927 37.7627L118.33 45.4257L126.266 36.3001L131.924 36.4379L135.399 81.9248L124.742 81.5754L124.301 48.3693L120.828 59.9198L110.819 49.708L113.402 80.3214L111.218 81.2605ZM151.852 83.8224L141.465 78.4525L140.205 67.8372L138.224 44.8628L145.19 37.6931L153.397 35L158.089 39.9192L165.654 47.012L165.828 70.271L162.424 79.1191L152.375 82.3066L151.852 83.8224ZM149.929 76.4994L156.425 73.9546L157.986 69.9879L154.688 45.6562L151.023 43.8756L147.088 47.036L146.517 48.2821L146.526 70.8245L153.208 76.4319L149.929 76.4994ZM178.6 82.7518L169.82 80.7774L167.565 36.6768L187.488 35.9524L193.616 41.7186L195.858 47.6734L193.864 52.2944L190.6 59.7399L193.46 68.5614L195.352 83.6183L186.431 80.6271L186.699 64.5234L184.979 63.1017L177.848 62.9815L176.175 82.6697L178.6 82.7518ZM181.977 43.0895L177.88 45.1494L178.232 56.591L184.481 54.7494L186.229 53.6327L185.58 48.2563L183.848 45.9905L181.977 43.0895ZM223.394 83.173L202.327 83.1934L201.504 35.0097L222.401 38.1644L221.765 46.7476L207.215 45.8517L207.805 56.4611L221.982 54.619L222.875 61.7091L207.211 62.9501L209.892 74.515L219.952 72.5914L223.345 82.8339L223.394 83.173Z" fill="black" shape-rendering="crispEdges" />
<path d="M72.0057 82.4603L64 83.5787L66.9567 38.1309L71.8751 37.9131L72.9063 83.6128L72.0057 82.4603ZM98.5161 82.5828L78.1089 80.9066L79.0235 35.6555L88.5194 35.3516L88.507 73.5726L97.9843 73.1462L98.0244 82.2016L98.5161 82.5828ZM111.218 81.2605L103.127 83.3229L106.515 35.7636L113.927 37.7627L118.33 45.4257L126.266 36.3001L131.924 36.4379L135.399 81.9248L124.742 81.5754L124.301 48.3693L120.828 59.9198L110.819 49.708L113.402 80.3214L111.218 81.2605ZM151.852 83.8224L141.465 78.4525L140.205 67.8372L138.224 44.8628L145.19 37.6931L153.397 35L158.089 39.9192L165.654 47.012L165.828 70.271L162.424 79.1191L152.375 82.3066L151.852 83.8224ZM149.929 76.4994L156.425 73.9546L157.986 69.9879L154.688 45.6562L151.023 43.8756L147.088 47.036L146.517 48.2821L146.526 70.8245L153.208 76.4319L149.929 76.4994ZM178.6 82.7518L169.82 80.7774L167.565 36.6768L187.488 35.9524L193.616 41.7186L195.858 47.6734L193.864 52.2944L190.6 59.7399L193.46 68.5614L195.352 83.6183L186.431 80.6271L186.699 64.5234L184.979 63.1017L177.848 62.9815L176.175 82.6697L178.6 82.7518ZM181.977 43.0895L177.88 45.1494L178.232 56.591L184.481 54.7494L186.229 53.6327L185.58 48.2563L183.848 45.9905L181.977 43.0895ZM223.394 83.173L202.327 83.1934L201.504 35.0097L222.401 38.1644L221.765 46.7476L207.215 45.8517L207.805 56.4611L221.982 54.619L222.875 61.7091L207.211 62.9501L209.892 74.515L219.952 72.5914L223.345 82.8339L223.394 83.173Z" fill="black" shape-rendering="crispEdges" />
<path d="M72.0057 82.4603L64 83.5787L66.9567 38.1309L71.8751 37.9131L72.9063 83.6128L72.0057 82.4603ZM98.5161 82.5828L78.1089 80.9066L79.0235 35.6555L88.5194 35.3516L88.507 73.5726L97.9843 73.1462L98.0244 82.2016L98.5161 82.5828ZM111.218 81.2605L103.127 83.3229L106.515 35.7636L113.927 37.7627L118.33 45.4257L126.266 36.3001L131.924 36.4379L135.399 81.9248L124.742 81.5754L124.301 48.3693L120.828 59.9198L110.819 49.708L113.402 80.3214L111.218 81.2605ZM151.852 83.8224L141.465 78.4525L140.205 67.8372L138.224 44.8628L145.19 37.6931L153.397 35L158.089 39.9192L165.654 47.012L165.828 70.271L162.424 79.1191L152.375 82.3066L151.852 83.8224ZM149.929 76.4994L156.425 73.9546L157.986 69.9879L154.688 45.6562L151.023 43.8756L147.088 47.036L146.517 48.2821L146.526 70.8245L153.208 76.4319L149.929 76.4994ZM178.6 82.7518L169.82 80.7774L167.565 36.6768L187.488 35.9524L193.616 41.7186L195.858 47.6734L193.864 52.2944L190.6 59.7399L193.46 68.5614L195.352 83.6183L186.431 80.6271L186.699 64.5234L184.979 63.1017L177.848 62.9815L176.175 82.6697L178.6 82.7518ZM181.977 43.0895L177.88 45.1494L178.232 56.591L184.481 54.7494L186.229 53.6327L185.58 48.2563L183.848 45.9905L181.977 43.0895ZM223.394 83.173L202.327 83.1934L201.504 35.0097L222.401 38.1644L221.765 46.7476L207.215 45.8517L207.805 56.4611L221.982 54.619L222.875 61.7091L207.211 62.9501L209.892 74.515L219.952 72.5914L223.345 82.8339L223.394 83.173Z" fill="black" shape-rendering="crispEdges" />
<path d="M72.0057 82.4603L64 83.5787L66.9567 38.1309L71.8751 37.9131L72.9063 83.6128L72.0057 82.4603ZM98.5161 82.5828L78.1089 80.9066L79.0235 35.6555L88.5194 35.3516L88.507 73.5726L97.9843 73.1462L98.0244 82.2016L98.5161 82.5828ZM111.218 81.2605L103.127 83.3229L106.515 35.7636L113.927 37.7627L118.33 45.4257L126.266 36.3001L131.924 36.4379L135.399 81.9248L124.742 81.5754L124.301 48.3693L120.828 59.9198L110.819 49.708L113.402 80.3214L111.218 81.2605ZM151.852 83.8224L141.465 78.4525L140.205 67.8372L138.224 44.8628L145.19 37.6931L153.397 35L158.089 39.9192L165.654 47.012L165.828 70.271L162.424 79.1191L152.375 82.3066L151.852 83.8224ZM149.929 76.4994L156.425 73.9546L157.986 69.9879L154.688 45.6562L151.023 43.8756L147.088 47.036L146.517 48.2821L146.526 70.8245L153.208 76.4319L149.929 76.4994ZM178.6 82.7518L169.82 80.7774L167.565 36.6768L187.488 35.9524L193.616 41.7186L195.858 47.6734L193.864 52.2944L190.6 59.7399L193.46 68.5614L195.352 83.6183L186.431 80.6271L186.699 64.5234L184.979 63.1017L177.848 62.9815L176.175 82.6697L178.6 82.7518ZM181.977 43.0895L177.88 45.1494L178.232 56.591L184.481 54.7494L186.229 53.6327L185.58 48.2563L183.848 45.9905L181.977 43.0895ZM223.394 83.173L202.327 83.1934L201.504 35.0097L222.401 38.1644L221.765 46.7476L207.215 45.8517L207.805 56.4611L221.982 54.619L222.875 61.7091L207.211 62.9501L209.892 74.515L219.952 72.5914L223.345 82.8339L223.394 83.173Z" fill="black" shape-rendering="crispEdges" />
</svg>
